<svg id="Capa_1" enable-background="new 0 0 512 512" height="512" viewBox="0 0 512 512" width="512" xmlns="http://www.w3.org/2000/svg"><g><path d="m504.5 496.996h-105.688l-110.715-227.609c11.614-8.242 19.212-21.765 19.212-37.033 0-8.482-2.349-16.424-6.422-23.225l7.871-4.53c5.571 7.625 16.107 9.794 24.209 5.114l90.102-51.854c5.571 7.624 16.106 9.792 24.208 5.113l29.614-17.043c8.015-4.57 11.449-14.927 7.749-23.345 26.993-19.597 35.056-58.501 18.359-87.328-17.246-29.777-54.154-41.321-85.025-27.786-5.525-7.433-15.905-9.731-24.125-5l-29.613 17.043c-8.135 4.616-11.503 14.97-7.698 23.474l-25.85 14.877c-3.59 2.066-4.825 6.651-2.759 10.242 2.065 3.59 6.652 4.824 10.242 2.759l25.785-14.84 51.497 88.911-89.966 51.776c-1.693.976-3.864.399-4.837-1.283l-47.984-82.846c-1.023-1.937-.579-3.59 1.289-4.76l33.515-19.288c3.59-2.066 4.825-6.651 2.759-10.242-2.066-3.59-6.653-4.825-10.242-2.759l-33.514 19.288c-8.622 4.894-11.786 16.094-7.045 24.78l-89.979 51.788c-9.316 5.265-12.016 17.541-6.147 26.406l-91.105 52.433c-5.503-7.52-15.949-9.86-24.211-5.107l-9.552 5.498c-4.294 2.471-7.365 6.464-8.646 11.244-1.279 4.773-.619 9.758 1.858 14.035l26.646 46.004c3.429 5.92 9.669 9.234 16.077 9.234 3.138 0 6.316-.795 9.222-2.468l9.553-5.498c4.294-2.471 7.364-6.465 8.645-11.244 1.103-4.116.756-8.386-.947-12.228l91.114-52.442c3.035 6.97 10.188 11.667 17.481 11.667 4.953 0 8.421-1.908 12.576-4.398 3.314 5.884 7.911 10.95 13.396 14.847l-40.236 82.717c-1.812 3.725-.261 8.213 3.464 10.025 3.655 1.778 8.193.308 10.025-3.464l40.239-82.723c4.079 1.2 8.388 1.858 12.853 1.858 4.462 0 8.771-.654 12.85-1.852l107.529 221.058h-240.764l51.97-106.84c1.812-3.725.261-8.213-3.464-10.025-3.724-1.81-8.213-.26-10.025 3.464l-55.162 113.401h-117.188c-4.142 0-7.5 3.358-7.5 7.5s3.358 7.5 7.5 7.5h497c4.142 0 7.5-3.358 7.5-7.5s-3.358-7.496-7.5-7.496zm-14.48-454.224c12.691 21.913 7.203 51.114-12.836 66.662l-51.512-88.937c23.623-9.384 51.271-.303 64.348 22.275zm-119.591-5.498c-1.022-1.938-.58-3.59 1.289-4.76l29.614-17.043c1.693-.973 3.864-.398 4.837 1.283l64.53 111.413c1.06 1.997.592 3.579-1.289 4.761l-29.614 17.043c-1.692.974-3.863.399-4.837-1.283zm-284.768 272.898-9.552 5.498c-1.693.976-3.864.399-4.837-1.283l-26.646-46.004c-1.025-1.94-.58-3.59 1.289-4.761l9.552-5.498c1.662-.958 3.849-.423 4.838 1.283l26.645 46.004c1.062 1.999.59 3.579-1.289 4.761zm7.763-23.509-13.615-23.508 91.011-52.378 13.616 23.504zm122.773-54.308c0 2.667.245 5.276.689 7.818l-5.708 3.283c-1.692.975-3.861.399-4.838-1.29l-30.712-53.013c-1.024-1.938-.58-3.587 1.293-4.757l89.999-51.8 34.22 59.081-10.169 5.853c-7.916-6.616-18.106-10.609-29.218-10.609-25.12-.001-45.556 20.381-45.556 45.434zm45.556 30.435c-16.849 0-30.556-13.653-30.556-30.435s13.708-30.435 30.556-30.435c16.849 0 30.557 13.653 30.557 30.435s-13.708 30.435-30.557 30.435z"/></g></svg>