<svg id="Capa_1" enable-background="new 0 0 511.886 511.886" height="512" viewBox="0 0 511.886 511.886" width="512" xmlns="http://www.w3.org/2000/svg"><g><g><g><path d="m415.26 130.424c-1.318-2.256-3.926-3.709-6.464-3.709-.059 0-342.846 0-342.846 0-.024 0-.046.004-.07.005-2.533.026-5.039 1.455-6.346 3.628-.007.012-.017.023-.024.035l-20.16 33.986c-2.11 3.556-.937 8.149 2.619 10.258 3.559 2.11 8.15.937 10.259-2.619l14.858-25.046 69.083 79.878h-115.693l14.684-25.122c2.087-3.57.884-8.156-2.686-10.242-3.568-2.087-8.155-.884-10.242 2.685-.286.49-9.775 16.723-14.233 24.35-1.976 3.381-3.952 6.762-5.928 10.142-1.942 3.322-3.272 6.904-.452 10.381.04.049.07.103.111.151 0 0 229.663 269.351 229.945 269.681 2.853 3.346 8.508 3.385 11.394 0l99.449-116.635 3.205-3.64c2.733-3.104 2.433-7.835-.671-10.567-3.103-2.732-7.833-2.431-10.566.671l-3.243 3.683c-.026.03-.053.06-.078.091l-75.605 88.67 72.135-229.325h123.4l-94.407 110.721c-2.683 3.147-2.307 7.872.839 10.555 3.146 2.682 7.871 2.306 10.555-.839l104.932-123.065c.03-.035.052-.075.081-.111.853-1.041 1.397-2.208 1.625-3.417.319-1.697.014-3.477-.939-5.108-.028-.051-58.521-100.126-58.521-100.126zm-332.936 11.265h138.893l-68.731 81.125zm155.049 4.095 68.673 81.055h-137.345zm-213.723 96.03h123.4l72.135 229.325zm213.723 237.243-74.626-237.243h149.252zm84.888-256.243-68.732-81.125h138.893zm16.316 4.025 69.036-79.825 46.657 79.825z"/><path d="m347.299 64.014c13.287 9.741 21.105 23.358 25.324 33.068 2.189 5.036 7.154 8.291 12.651 8.291s10.463-3.255 12.652-8.291c4.219-9.709 12.036-23.327 25.324-33.068 3.504-2.569 5.595-6.711 5.595-11.079 0-4.369-2.091-8.511-5.595-11.08-13.287-9.741-21.105-23.359-25.325-33.068-2.189-5.036-7.154-8.291-12.651-8.291s-10.463 3.255-12.651 8.291c-4.219 9.708-12.037 23.327-25.325 33.068-3.504 2.569-5.595 6.711-5.595 11.08.001 4.368 2.092 8.51 5.596 11.079zm37.976-46.85c5.02 10.839 13.691 24.97 27.792 35.769-14.102 10.8-22.773 24.931-27.792 35.769-5.02-10.839-13.692-24.97-27.792-35.769 14.101-10.8 22.771-24.929 27.792-35.769z"/><path d="m506.707 104.365c-10.883-7.978-17.3-19.161-20.765-27.137-2.024-4.658-6.617-7.668-11.701-7.668 0 0 0 0-.001 0-5.083 0-9.676 3.01-11.701 7.668-3.466 7.976-9.881 19.159-20.766 27.138-3.242 2.378-5.177 6.21-5.177 10.251s1.936 7.873 5.179 10.251c10.883 7.978 17.299 19.161 20.765 27.136 2.025 4.659 6.618 7.669 11.702 7.668 5.083 0 9.676-3.01 11.7-7.668 3.467-7.975 9.883-19.158 20.766-27.137 3.242-2.378 5.178-6.21 5.178-10.25 0-4.041-1.936-7.874-5.179-10.252zm-32.467 37.306c-4.217-8.485-10.949-18.789-21.237-27.055 10.289-8.266 17.02-18.57 21.237-27.055 4.218 8.486 10.949 18.789 21.238 27.056-10.29 8.266-17.02 18.569-21.238 27.054z"/></g></g></g></svg>